<mxfile host="app.diagrams.net" modified="2024-02-20T14:07:14.653Z" agent="Mozilla/5.0 (Windows NT 10.0; Win64; x64) AppleWebKit/537.36 (KHTML, like Gecko) Chrome/121.0.0.0 Safari/537.36 Edg/121.0.0.0" etag="4CHNgSb_4GVhjUbq0-wC" version="23.1.5" type="device">
  <diagram name="PÃ¡gina-1" id="rfvN3CKVcgMVe4Xdy2pS">
    <mxGraphModel dx="979" dy="516" grid="1" gridSize="10" guides="1" tooltips="1" connect="1" arrows="1" fold="1" page="1" pageScale="1" pageWidth="827" pageHeight="1169" math="0" shadow="0">
      <root>
        <mxCell id="0" />
        <mxCell id="1" parent="0" />
        <mxCell id="XIojAg1ARDhrm3dA4KbM-1" value="Medico" style="swimlane;fontStyle=1;align=center;verticalAlign=top;childLayout=stackLayout;horizontal=1;startSize=26;horizontalStack=0;resizeParent=1;resizeParentMax=0;resizeLast=0;collapsible=1;marginBottom=0;whiteSpace=wrap;html=1;" vertex="1" parent="1">
          <mxGeometry x="70" y="220" width="590" height="138" as="geometry" />
        </mxCell>
        <mxCell id="XIojAg1ARDhrm3dA4KbM-2" value="- crm: string" style="text;strokeColor=none;fillColor=none;align=left;verticalAlign=top;spacingLeft=4;spacingRight=4;overflow=hidden;rotatable=0;points=[[0,0.5],[1,0.5]];portConstraint=eastwest;whiteSpace=wrap;html=1;" vertex="1" parent="XIojAg1ARDhrm3dA4KbM-1">
          <mxGeometry y="26" width="590" height="26" as="geometry" />
        </mxCell>
        <mxCell id="XIojAg1ARDhrm3dA4KbM-8" value="- especialidades: string[]" style="text;strokeColor=none;fillColor=none;align=left;verticalAlign=top;spacingLeft=4;spacingRight=4;overflow=hidden;rotatable=0;points=[[0,0.5],[1,0.5]];portConstraint=eastwest;whiteSpace=wrap;html=1;" vertex="1" parent="XIojAg1ARDhrm3dA4KbM-1">
          <mxGeometry y="52" width="590" height="26" as="geometry" />
        </mxCell>
        <mxCell id="XIojAg1ARDhrm3dA4KbM-3" value="" style="line;strokeWidth=1;fillColor=none;align=left;verticalAlign=middle;spacingTop=-1;spacingLeft=3;spacingRight=3;rotatable=0;labelPosition=right;points=[];portConstraint=eastwest;strokeColor=inherit;" vertex="1" parent="XIojAg1ARDhrm3dA4KbM-1">
          <mxGeometry y="78" width="590" height="8" as="geometry" />
        </mxCell>
        <mxCell id="XIojAg1ARDhrm3dA4KbM-4" value="+ filaDeAtendimento(): Paciente[]" style="text;strokeColor=none;fillColor=none;align=left;verticalAlign=top;spacingLeft=4;spacingRight=4;overflow=hidden;rotatable=0;points=[[0,0.5],[1,0.5]];portConstraint=eastwest;whiteSpace=wrap;html=1;" vertex="1" parent="XIojAg1ARDhrm3dA4KbM-1">
          <mxGeometry y="86" width="590" height="26" as="geometry" />
        </mxCell>
        <mxCell id="XIojAg1ARDhrm3dA4KbM-9" value="+ receitarMedicamento(nomeDaMedicacao:string,dosagem:float,tipoDeAplicacao:string,frequencia:int): void" style="text;strokeColor=none;fillColor=none;align=left;verticalAlign=top;spacingLeft=4;spacingRight=4;overflow=hidden;rotatable=0;points=[[0,0.5],[1,0.5]];portConstraint=eastwest;whiteSpace=wrap;html=1;" vertex="1" parent="XIojAg1ARDhrm3dA4KbM-1">
          <mxGeometry y="112" width="590" height="26" as="geometry" />
        </mxCell>
        <mxCell id="XIojAg1ARDhrm3dA4KbM-10" value="Paciente" style="swimlane;fontStyle=0;childLayout=stackLayout;horizontal=1;startSize=26;fillColor=none;horizontalStack=0;resizeParent=1;resizeParentMax=0;resizeLast=0;collapsible=1;marginBottom=0;whiteSpace=wrap;html=1;" vertex="1" parent="1">
          <mxGeometry x="750" y="220" width="140" height="52" as="geometry" />
        </mxCell>
        <mxCell id="XIojAg1ARDhrm3dA4KbM-11" value="- tipoSanguineo: string" style="text;strokeColor=none;fillColor=none;align=left;verticalAlign=top;spacingLeft=4;spacingRight=4;overflow=hidden;rotatable=0;points=[[0,0.5],[1,0.5]];portConstraint=eastwest;whiteSpace=wrap;html=1;" vertex="1" parent="XIojAg1ARDhrm3dA4KbM-10">
          <mxGeometry y="26" width="140" height="26" as="geometry" />
        </mxCell>
        <mxCell id="XIojAg1ARDhrm3dA4KbM-14" value="Pessoa" style="swimlane;fontStyle=0;childLayout=stackLayout;horizontal=1;startSize=26;fillColor=none;horizontalStack=0;resizeParent=1;resizeParentMax=0;resizeLast=0;collapsible=1;marginBottom=0;whiteSpace=wrap;html=1;" vertex="1" parent="1">
          <mxGeometry x="560" y="10" width="140" height="104" as="geometry" />
        </mxCell>
        <mxCell id="XIojAg1ARDhrm3dA4KbM-15" value="- nome: string" style="text;strokeColor=none;fillColor=none;align=left;verticalAlign=top;spacingLeft=4;spacingRight=4;overflow=hidden;rotatable=0;points=[[0,0.5],[1,0.5]];portConstraint=eastwest;whiteSpace=wrap;html=1;" vertex="1" parent="XIojAg1ARDhrm3dA4KbM-14">
          <mxGeometry y="26" width="140" height="26" as="geometry" />
        </mxCell>
        <mxCell id="XIojAg1ARDhrm3dA4KbM-18" value="- telefone: string" style="text;strokeColor=none;fillColor=none;align=left;verticalAlign=top;spacingLeft=4;spacingRight=4;overflow=hidden;rotatable=0;points=[[0,0.5],[1,0.5]];portConstraint=eastwest;whiteSpace=wrap;html=1;" vertex="1" parent="XIojAg1ARDhrm3dA4KbM-14">
          <mxGeometry y="52" width="140" height="26" as="geometry" />
        </mxCell>
        <mxCell id="XIojAg1ARDhrm3dA4KbM-19" value="- email: string" style="text;strokeColor=none;fillColor=none;align=left;verticalAlign=top;spacingLeft=4;spacingRight=4;overflow=hidden;rotatable=0;points=[[0,0.5],[1,0.5]];portConstraint=eastwest;whiteSpace=wrap;html=1;" vertex="1" parent="XIojAg1ARDhrm3dA4KbM-14">
          <mxGeometry y="78" width="140" height="26" as="geometry" />
        </mxCell>
        <mxCell id="XIojAg1ARDhrm3dA4KbM-20" value="Extends" style="endArrow=block;endSize=16;endFill=0;html=1;rounded=0;entryX=-0.01;entryY=1.068;entryDx=0;entryDy=0;entryPerimeter=0;exitX=0.5;exitY=0;exitDx=0;exitDy=0;" edge="1" parent="1" source="XIojAg1ARDhrm3dA4KbM-1" target="XIojAg1ARDhrm3dA4KbM-19">
          <mxGeometry width="160" relative="1" as="geometry">
            <mxPoint x="390" y="190" as="sourcePoint" />
            <mxPoint x="550" y="190" as="targetPoint" />
          </mxGeometry>
        </mxCell>
        <mxCell id="XIojAg1ARDhrm3dA4KbM-21" value="Extends" style="endArrow=block;endSize=16;endFill=0;html=1;rounded=0;entryX=0.965;entryY=1.113;entryDx=0;entryDy=0;entryPerimeter=0;exitX=0.5;exitY=0;exitDx=0;exitDy=0;" edge="1" parent="1" source="XIojAg1ARDhrm3dA4KbM-10" target="XIojAg1ARDhrm3dA4KbM-19">
          <mxGeometry width="160" relative="1" as="geometry">
            <mxPoint x="300" y="210" as="sourcePoint" />
            <mxPoint x="460" y="210" as="targetPoint" />
          </mxGeometry>
        </mxCell>
      </root>
    </mxGraphModel>
  </diagram>
</mxfile>
